<svg xmlns="http://www.w3.org/2000/svg" viewBox="0 0 60 60"><defs><style>.f060c8dd-d37f-4d3d-92f3-1bdbd35b4dc3{fill:#f5f5f5}.f27d73ff-2408-4cc5-8469-1641b55aca5f{fill:#2bb7c9}</style></defs><g id="c44c0844-73ab-4eae-a81b-b0778dfccce2" data-name="Технологии"><path class="f060c8dd-d37f-4d3d-92f3-1bdbd35b4dc3" d="M0 0h60v60H0z"/><path transform="rotate(-71.148 29.19 17.816)" d="M27.19 4.757h4v26.119h-4z"/><path class="f27d73ff-2408-4cc5-8469-1641b55aca5f" transform="rotate(-31.727 29.19 29.678)" d="M14.658 27.679H43.72v4H14.658z"/><path class="f27d73ff-2408-4cc5-8469-1641b55aca5f" transform="rotate(-69.882 29.19 41.849)" d="M27.19 28.687h4v26.324h-4z"/><circle class="f060c8dd-d37f-4d3d-92f3-1bdbd35b4dc3" cx="16.831" cy="13.597" r="5.701"/><circle class="f27d73ff-2408-4cc5-8469-1641b55aca5f" cx="16.831" cy="13.597" r="7.701"/><circle class="f060c8dd-d37f-4d3d-92f3-1bdbd35b4dc3" cx="16.831" cy="13.597" r="3.701"/><circle class="f060c8dd-d37f-4d3d-92f3-1bdbd35b4dc3" cx="41.548" cy="22.036" r="6.738"/><path class="f27d73ff-2408-4cc5-8469-1641b55aca5f" d="M41.548 13.3a8.738 8.738 0 108.738 8.738 8.748 8.748 0 00-8.738-8.738z"/><path class="f060c8dd-d37f-4d3d-92f3-1bdbd35b4dc3" d="M41.548 17.3a4.738 4.738 0 11-4.738 4.738 4.738 4.738 0 014.738-4.738"/><circle class="f060c8dd-d37f-4d3d-92f3-1bdbd35b4dc3" cx="16.831" cy="37.321" r="7.377"/><path class="f27d73ff-2408-4cc5-8469-1641b55aca5f" d="M16.831 27.944a9.377 9.377 0 109.377 9.377 9.388 9.388 0 00-9.377-9.377z"/><path class="f060c8dd-d37f-4d3d-92f3-1bdbd35b4dc3" d="M16.831 31.944a5.377 5.377 0 11-5.377 5.377 5.377 5.377 0 015.377-5.377"/><circle class="f060c8dd-d37f-4d3d-92f3-1bdbd35b4dc3" cx="41.549" cy="46.376" r="6.249"/><path class="f27d73ff-2408-4cc5-8469-1641b55aca5f" d="M41.548 38.127a8.249 8.249 0 108.252 8.249 8.258 8.258 0 00-8.249-8.249z"/><path class="f060c8dd-d37f-4d3d-92f3-1bdbd35b4dc3" d="M41.548 42.127a4.249 4.249 0 11-4.248 4.249 4.249 4.249 0 014.249-4.249"/></g></svg>