<svg id="cd5cde47-4a21-46b6-81fb-f8fbb4a2a6c9" data-name="Деньги" xmlns="http://www.w3.org/2000/svg" viewBox="0 0 60 60"><defs><style>.f9dc6e65-dcdf-43cd-b855-1020f67eb0ee{fill:#f5f5f5}</style></defs><path class="f9dc6e65-dcdf-43cd-b855-1020f67eb0ee" d="M0 0h60v60H0z"/><path d="M30 56.108a2 2 0 01-2-2v-46a2 2 0 014 0v46a2 2 0 01-2 2z"/><path class="730be815-57c4-4fc2-aa7d-42b699cd15c9" d="M30.012 50.762a18.24 18.24 0 01-9.243-2.138 12.686 12.686 0 01-4.31-4.174 9.739 9.739 0 01-1.681-5.211 4.167 4.167 0 014.247-4.2 3.736 3.736 0 012.618 1 6.663 6.663 0 011.609 2.544 13.46 13.46 0 001.367 2.651 5.023 5.023 0 001.871 1.573 7.331 7.331 0 003.325.633 7.611 7.611 0 004.639-1.3 3.541 3.541 0 001.612-2.946 2.978 2.978 0 00-.8-2.194 6.062 6.062 0 00-2.415-1.449c-1.109-.377-2.624-.787-4.5-1.217a34.9 34.9 0 01-6.657-2.18 11.473 11.473 0 01-4.512-3.612 9.569 9.569 0 01-1.718-5.778 9.934 9.934 0 011.793-5.824 11.187 11.187 0 015.106-3.88 20.181 20.181 0 017.553-1.306 18.823 18.823 0 016.021.871 13.1 13.1 0 014.32 2.359 10.12 10.12 0 012.567 3.164 7.584 7.584 0 01.835 3.347 4.417 4.417 0 01-1.167 2.994 3.893 3.893 0 01-3.031 1.375 3.59 3.59 0 01-2.586-.9 9.2 9.2 0 01-1.592-2.289 8.412 8.412 0 00-2.1-2.863 6 6 0 00-3.756-.9 6.687 6.687 0 00-3.947 1.046 2.63 2.63 0 00-1.3 2.153 2.014 2.014 0 00.386 1.255 3.955 3.955 0 001.292 1.065 9.833 9.833 0 001.884.8c.676.205 1.827.513 3.423.916a55.647 55.647 0 015.564 1.588 17.75 17.75 0 014.424 2.2 9.552 9.552 0 013 3.446 10.909 10.909 0 011.076 5.036 11.55 11.55 0 01-1.832 6.377 12.137 12.137 0 01-5.321 4.42 19.407 19.407 0 01-8.064 1.548z"/><path class="f9dc6e65-dcdf-43cd-b855-1020f67eb0ee" d="M29.915 10.75a21.157 21.157 0 00-7.927 1.379 12.168 12.168 0 00-5.551 4.233 10.913 10.913 0 00-1.975 6.4 10.541 10.541 0 001.911 6.368 12.456 12.456 0 004.9 3.929 35.869 35.869 0 006.843 2.241c1.855.424 3.336.824 4.413 1.191a5.075 5.075 0 012.023 1.2 1.954 1.954 0 01.516 1.494 2.5 2.5 0 01-1.21 2.144 6.652 6.652 0 01-4.041 1.1 6.39 6.39 0 01-2.865-.521 3.988 3.988 0 01-1.508-1.253 12.576 12.576 0 01-1.265-2.455 7.6 7.6 0 00-1.855-2.9 4.774 4.774 0 00-3.3-1.263 5.169 5.169 0 00-5.247 5.2 10.718 10.718 0 001.837 5.747 13.669 13.669 0 004.64 4.5 19.22 19.22 0 009.756 2.279 20.4 20.4 0 008.469-1.644 13.125 13.125 0 005.748-4.788 12.537 12.537 0 001.992-6.921 11.888 11.888 0 00-1.188-5.5 10.548 10.548 0 00-3.3-3.8 18.734 18.734 0 00-4.674-2.332 56.789 56.789 0 00-5.683-1.621c-1.544-.39-2.68-.694-3.343-.894a8.887 8.887 0 01-1.694-.719 2.985 2.985 0 01-.972-.789 1 1 0 01-.186-.656c0-.211 0-.706.886-1.341a5.73 5.73 0 013.364-.859c2.006 0 2.814.422 3.117.674a7.338 7.338 0 011.82 2.492l.018.037.019.036a10.144 10.144 0 001.782 2.538 4.548 4.548 0 003.275 1.184 4.916 4.916 0 003.783-1.715 5.458 5.458 0 001.416-3.654 8.567 8.567 0 00-.938-3.788 11.1 11.1 0 00-2.815-3.483 14.089 14.089 0 00-4.646-2.545 19.821 19.821 0 00-6.345-.924z"/><path class="730be815-57c4-4fc2-aa7d-42b699cd15c9" d="M29.915 12.75a17.765 17.765 0 015.7.818 12.054 12.054 0 013.992 2.173 9.083 9.083 0 012.319 2.844 6.561 6.561 0 01.732 2.905 3.429 3.429 0 01-.916 2.332 2.918 2.918 0 01-2.282 1.038 2.625 2.625 0 01-1.892-.623 8.369 8.369 0 01-1.4-2.039 9.254 9.254 0 00-2.344-3.162 6.855 6.855 0 00-4.398-1.136 7.61 7.61 0 00-4.526 1.235 3.587 3.587 0 00-1.724 2.965 3 3 0 00.586 1.855 4.927 4.927 0 001.612 1.345 10.834 10.834 0 002.075.879q1.05.318 3.467.928a54.539 54.539 0 015.484 1.561 16.671 16.671 0 014.175 2.075 8.529 8.529 0 012.685 3.088 9.883 9.883 0 01.965 4.578 10.521 10.521 0 01-1.672 5.835 11.111 11.111 0 01-4.9 4.053 18.342 18.342 0 01-7.642 1.465 17.19 17.19 0 01-8.74-2 11.634 11.634 0 01-3.971-3.847 8.726 8.726 0 01-1.526-4.675 3.169 3.169 0 013.247-3.2 2.757 2.757 0 011.941.732 5.767 5.767 0 011.355 2.173A14.474 14.474 0 0023.8 41.8a5.981 5.981 0 002.233 1.9 8.254 8.254 0 003.784.745 8.538 8.538 0 005.237-1.5 4.517 4.517 0 002.014-3.748 3.963 3.963 0 00-1.087-2.897 7.012 7.012 0 00-2.808-1.7q-1.721-.586-4.6-1.245a33.746 33.746 0 01-6.458-2.112 10.435 10.435 0 01-4.126-3.3 8.552 8.552 0 01-1.526-5.188 8.91 8.91 0 011.611-5.249 10.161 10.161 0 014.663-3.528 19.1 19.1 0 017.178-1.233"/></svg>