<svg xmlns="http://www.w3.org/2000/svg" viewBox="0 0 60 60"><defs><style/></defs><g id="b235e20c-7916-443c-89ba-a9c7c6eab9eb" data-name="Юмор"><path fill="#f5f5f5" d="M0 0h60v60H0z"/><path d="M21.53 16.773a2.9 2.9 0 012.225.987 3.337 3.337 0 01.9 2.33 3.222 3.222 0 01-.546 1.826 3.59 3.59 0 01-1.606 1.28 6.549 6.549 0 01-2.613.462 8.8 8.8 0 01-3.89-.882 8.527 8.527 0 01-2.876-2.152 3.768 3.768 0 01-1.06-2.3 1.364 1.364 0 01.43-1.05 1.422 1.422 0 011-.4 1.579 1.579 0 011.385.84q1.344 2.456 3.422 2.456a3.592 3.592 0 01.85-2.393 2.946 2.946 0 012.382-1.008"/><path class="5cb81d77-8e5e-4713-b1b6-22686018eed3" d="M38.512 17.3a2.907 2.907 0 012.309.934 3.306 3.306 0 01.819 2.257 3.189 3.189 0 01-.829 2.2 2.932 2.932 0 01-2.3.924 3.355 3.355 0 01-3.149-3.128 3.143 3.143 0 01.42-1.606 3.225 3.225 0 011.123-1.155 3.01 3.01 0 011.606-.43M29.99 43.413a28.9 28.9 0 01-8.59-1.228 36.373 36.373 0 01-8.082-3.726 10.914 10.914 0 01-2.9-2.225 3.749 3.749 0 01-.588-2.225q0-1.05.567-1.05a13.321 13.321 0 012.026.882q1.837.882 4.377 1.837a39.856 39.856 0 005.972 1.658 35.876 35.876 0 007.21.7 35.62 35.62 0 007.242-.714 40.657 40.657 0 005.961-1.658q2.519-.945 4.377-1.826a14.851 14.851 0 012.038-.878q.567 0 .567 1.05a3.934 3.934 0 01-.556 2.267 10.335 10.335 0 01-2.886 2.183 42.649 42.649 0 01-4.051 2.162 32.355 32.355 0 01-3.988 1.543 27.246 27.246 0 01-4.156.934 31.46 31.46 0 01-4.54.314z"/></g></svg>