<svg xmlns="http://www.w3.org/2000/svg" viewBox="0 0 60 60"><defs><style/></defs><g id="8a515050-56ef-45ca-800c-b8b52a3802c3" data-name="Обзоры"><path class="4db792b5-b803-4c0f-a1f1-df59b97a5274" d="M0 0h60v60H0z"/><path class="38d39f45-af25-427f-90c2-c30c4bbd991f" d="M54.1 16.375a9.461 9.461 0 00-16.028-6.814H16.7a8.024 8.024 0 00-8 8v27a8.024 8.024 0 008 8h27a8.023 8.023 0 008-8V22.66a9.421 9.421 0 002.4-6.285z" fill="#2bb7c9"/><path class="4db792b5-b803-4c0f-a1f1-df59b97a5274" d="M44.636 10.105l1.7 3.621 3.8.581-2.75 2.818.649 3.98-3.399-1.879-3.399 1.879.649-3.98-2.75-2.818 3.801-.581 1.699-3.621z"/><path d="M15.752 18.302h14v3h-14z"/><path class="4db792b5-b803-4c0f-a1f1-df59b97a5274" d="M15.752 23.302h28v3h-28zm.025 5h28v3h-28zm-.012 5h28v3h-28zm.024 5h28v3h-28z"/></g></svg>