<svg xmlns="http://www.w3.org/2000/svg" viewBox="0 0 65 70"><defs><style>.a63142fc-4bd7-4268-9258-3f7149e46b91{fill:#424242}</style></defs><path class="9a02ff3e-9fef-47bd-a993-682cddbcef81" fill="none" d="M0 0h65v70H0z" id="9aaf54ae-ecfa-4b39-aad7-88cfb6c2b71a" data-name="Слой 3"/><g id="2c995606-9dac-49cd-80f2-c6bb0911d3cf" data-name="Слой 2"><path class="a63142fc-4bd7-4268-9258-3f7149e46b91" d="M6.952 15.057l1.822 3.738 4.074.6-2.948 2.91.696 4.109-3.644-1.94-3.644 1.94.696-4.109-2.948-2.91 4.074-.6 1.822-3.738z"/><path class="a63142fc-4bd7-4268-9258-3f7149e46b91" d="M11.248 27.324l-4.3-2.288-4.3 2.288.82-4.845L0 19.047l4.8-.707 2.148-4.408L9.1 18.34l4.8.707-3.476 3.432zm-4.3-3.412L9.943 25.5l-.571-3.374 2.42-2.389-3.345-.487-1.5-3.069-1.5 3.069-3.345.492 2.42 2.389-.561 3.369zm12.778-8.855l1.822 3.738 4.074.6-2.948 2.91.696 4.109-3.644-1.94-3.644 1.94.696-4.109-2.948-2.91 4.074-.6 1.822-3.738z"/><path class="a63142fc-4bd7-4268-9258-3f7149e46b91" d="M24.022 27.324l-4.3-2.288-4.3 2.288.82-4.845-3.476-3.432 4.8-.707 2.148-4.408 2.148 4.408 4.8.707-3.462 3.432zm-4.3-3.412l2.995 1.588-.571-3.374 2.42-2.389-3.345-.492-1.5-3.069-1.5 3.069-3.345.492 2.42 2.389-.561 3.374zM32.5 15.057l1.822 3.738 4.074.6-2.948 2.91.696 4.109-3.644-1.94-3.644 1.94.696-4.109-2.948-2.91 4.074-.6 1.822-3.738z"/><path class="a63142fc-4bd7-4268-9258-3f7149e46b91" d="M36.8 27.324l-4.3-2.288-4.3 2.288.82-4.845-3.476-3.432 4.8-.707 2.156-4.408 2.149 4.408 4.8.707-3.476 3.432zm-4.3-3.412l2.991 1.588-.571-3.374 2.42-2.389L34 19.25l-1.5-3.069L31 19.25l-3.345.492 2.42 2.389-.566 3.369zm12.774-8.855l1.822 3.738 4.074.6-2.948 2.91.696 4.109-3.644-1.94-3.643 1.94.696-4.109-2.948-2.91 4.074-.6 1.821-3.738z"/><path class="a63142fc-4bd7-4268-9258-3f7149e46b91" d="M49.571 27.324l-4.3-2.288-4.3 2.288.82-4.845-3.476-3.432 4.8-.707 2.149-4.408 2.149 4.408 4.8.707-3.463 3.432zm-4.3-3.412l2.995 1.588-.571-3.374 2.42-2.389-3.345-.487-1.5-3.07-1.5 3.07-3.344.492 2.42 2.389-.563 3.369z"/><path class="06892f7d-8196-473d-85c6-11d2ce7cc3de" d="M58.049 15.057l1.822 3.738 4.073.6-2.947 2.91.695 4.109-3.643-1.94-3.644 1.94.696-4.109-2.948-2.91 4.074-.6 1.822-3.738z"/><path class="a63142fc-4bd7-4268-9258-3f7149e46b91" d="M62.345 27.324l-4.3-2.288-4.3 2.288.82-4.845-3.465-3.432 4.8-.707 2.149-4.408L60.2 18.34l4.8.707-3.476 3.432zm-4.3-3.412L61.04 25.5l-.571-3.374 2.42-2.389-3.344-.492-1.5-3.07-1.5 3.07-3.344.492 2.42 2.389-.563 3.374zM6.952 28.989l1.822 3.739 4.074.599-2.948 2.91.696 4.109-3.644-1.94-3.644 1.94.696-4.109-2.948-2.91 4.074-.599 1.822-3.739z"/><path class="a63142fc-4bd7-4268-9258-3f7149e46b91" d="M11.248 41.256l-4.3-2.288-4.3 2.288.82-4.845L0 32.98l4.8-.707 2.148-4.408L9.1 32.273l4.8.707-3.476 3.432zm-4.3-3.411l2.991 1.592-.571-3.373 2.42-2.389-3.345-.492-1.5-3.069-1.5 3.069-3.345.492 2.42 2.389-.571 3.373zm12.778-8.856l1.822 3.739 4.074.599-2.948 2.91.696 4.109-3.644-1.94-3.644 1.94.696-4.109-2.948-2.91 4.074-.599 1.822-3.739z"/><path class="a63142fc-4bd7-4268-9258-3f7149e46b91" d="M24.022 41.256l-4.3-2.288-4.3 2.288.82-4.845-3.467-3.431 4.8-.707 2.148-4.408 2.148 4.408 4.8.707-3.471 3.431zm-4.3-3.411l2.991 1.592-.571-3.373 2.42-2.389-3.345-.492-1.5-3.069-1.5 3.069-3.345.492 2.42 2.389-.571 3.373zM32.5 28.989l1.822 3.739 4.074.599-2.948 2.91.696 4.109-3.644-1.94-3.644 1.94.696-4.109-2.948-2.91 4.074-.599 1.822-3.739z"/><path class="a63142fc-4bd7-4268-9258-3f7149e46b91" d="M36.8 41.256l-4.3-2.288-4.3 2.288.82-4.845-3.471-3.431 4.8-.707 2.151-4.409 2.149 4.408 4.8.707-3.476 3.432zm-4.3-3.411l2.991 1.592-.571-3.373 2.42-2.389-3.34-.493-1.5-3.069-1.5 3.069-3.345.492 2.42 2.389-.571 3.373z"/><path class="06892f7d-8196-473d-85c6-11d2ce7cc3de" d="M45.274 28.989l1.822 3.739 4.074.599-2.948 2.91.696 4.109-3.644-1.94-3.643 1.94.696-4.109-2.948-2.91 4.074-.599 1.821-3.739z"/><path class="a63142fc-4bd7-4268-9258-3f7149e46b91" d="M49.571 41.256l-4.3-2.288-4.3 2.288.82-4.845-3.468-3.431 4.8-.707 2.149-4.408 2.149 4.408 4.8.707-3.471 3.431zm-4.3-3.411l2.991 1.592-.571-3.373 2.42-2.389-3.344-.492-1.5-3.07-1.5 3.07-3.344.492 2.42 2.389-.571 3.373z"/><path class="06892f7d-8196-473d-85c6-11d2ce7cc3de" d="M58.049 28.989l1.822 3.739 4.073.599-2.947 2.91.695 4.109-3.643-1.94-3.644 1.94.696-4.109-2.948-2.91 4.074-.599 1.822-3.739z"/><path class="a63142fc-4bd7-4268-9258-3f7149e46b91" d="M62.345 41.256l-4.3-2.288-4.3 2.288.82-4.845L51.1 32.98l4.8-.707 2.149-4.408 2.151 4.408 4.8.707-3.476 3.432zm-4.3-3.411l2.991 1.592-.571-3.373 2.42-2.389-3.344-.492-1.5-3.07-1.5 3.07-3.344.492 2.42 2.389-.571 3.373zM6.952 42.921l1.822 3.739 4.074.599-2.948 2.91.696 4.11-3.644-1.94-3.644 1.94.696-4.11-2.948-2.91 4.074-.599 1.822-3.739z"/><path class="a63142fc-4bd7-4268-9258-3f7149e46b91" d="M11.248 55.188L6.952 52.9l-4.3 2.288.82-4.845L0 46.913l4.8-.707L6.952 41.8 9.1 46.205l4.8.707-3.476 3.431zm-4.3-3.411l2.991 1.592L9.372 50l2.42-2.389-3.344-.492-1.5-3.069-1.5 3.069-3.344.492L4.532 50l-.571 3.373zm12.778-8.856l1.822 3.739 4.074.599-2.948 2.91.696 4.11-3.644-1.94-3.644 1.94.696-4.11-2.948-2.91 4.074-.599 1.822-3.739z"/><path class="a63142fc-4bd7-4268-9258-3f7149e46b91" d="M24.022 55.188l-4.3-2.288-4.3 2.288.82-4.845-3.476-3.431 4.8-.707 2.16-4.405 2.148 4.408 4.8.707-3.474 3.428zm-4.3-3.411l2.991 1.592L22.146 50l2.42-2.389-3.344-.492-1.5-3.069-1.5 3.069-3.344.492L17.306 50l-.571 3.373z"/><path class="06892f7d-8196-473d-85c6-11d2ce7cc3de" d="M32.5 42.921l1.822 3.739 4.074.599-2.948 2.91.696 4.11-3.644-1.94-3.644 1.94.696-4.11-2.948-2.91 4.074-.599 1.822-3.739z"/><path class="a63142fc-4bd7-4268-9258-3f7149e46b91" d="M36.8 55.188L32.5 52.9l-4.3 2.288.82-4.845-3.476-3.431 4.8-.707L32.5 41.8l2.149 4.408 4.8.707-3.476 3.431zm-4.3-3.411l2.991 1.592L34.92 50l2.42-2.389-3.34-.496-1.5-3.069-1.5 3.069-3.344.492L30.08 50l-.571 3.373z"/><path class="06892f7d-8196-473d-85c6-11d2ce7cc3de" d="M45.274 42.921l1.822 3.739 4.074.599-2.948 2.91.696 4.11-3.644-1.94-3.643 1.94.696-4.11-2.948-2.91 4.074-.599 1.821-3.739z"/><path class="a63142fc-4bd7-4268-9258-3f7149e46b91" d="M49.571 55.188l-4.3-2.288-4.3 2.288.82-4.845-3.476-3.431 4.8-.707 2.159-4.405 2.149 4.408 4.8.707-3.473 3.428zm-4.3-3.411l2.991 1.592L47.695 50l2.42-2.389-3.344-.492-1.5-3.069-1.5 3.069-3.344.492L42.854 50l-.571 3.373z"/><path class="06892f7d-8196-473d-85c6-11d2ce7cc3de" d="M58.049 42.921l1.822 3.739 4.073.599-2.947 2.91.695 4.11-3.643-1.94-3.644 1.94.696-4.11-2.948-2.91 4.074-.599 1.822-3.739z"/><path class="a63142fc-4bd7-4268-9258-3f7149e46b91" d="M62.345 55.188l-4.3-2.288-4.3 2.288.82-4.845-3.465-3.43 4.8-.707 2.149-4.406 2.151 4.405 4.8.707-3.476 3.431zm-4.3-3.411l2.991 1.592L60.469 50l2.42-2.389-3.344-.492-1.5-3.069-1.5 3.069-3.344.492L55.629 50l-.571 3.373zM6.952 56.853l1.822 3.739 4.074.6-2.948 2.91.696 4.109-3.644-1.94-3.644 1.94.696-4.109-2.948-2.91 4.074-.6 1.822-3.739z"/><path class="a63142fc-4bd7-4268-9258-3f7149e46b91" d="M11.248 69.12l-4.3-2.288-4.3 2.288.82-4.845L0 60.845l4.8-.707 2.148-4.408L9.1 60.137l4.8.707-3.476 3.431zm-4.3-3.411L9.943 67.3l-.571-3.373 2.42-2.389-3.344-.492-1.5-3.069-1.5 3.069-3.344.492 2.42 2.389-.563 3.373z"/><path class="06892f7d-8196-473d-85c6-11d2ce7cc3de" d="M19.726 56.853l1.822 3.739 4.074.6-2.948 2.91.696 4.109-3.644-1.94-3.644 1.94.696-4.109-2.948-2.91 4.074-.6 1.822-3.739z"/><path class="a63142fc-4bd7-4268-9258-3f7149e46b91" d="M24.022 69.12l-4.3-2.288-4.3 2.288.82-4.845-3.476-3.431 4.8-.707 2.148-4.408 2.148 4.408 4.8.707-3.462 3.432zm-4.3-3.411l2.995 1.591-.571-3.373 2.42-2.389-3.344-.492-1.5-3.069-1.5 3.069-3.344.492 2.42 2.389-.563 3.373z"/><path class="06892f7d-8196-473d-85c6-11d2ce7cc3de" d="M32.5 56.853l1.822 3.739 4.074.6-2.948 2.91.696 4.109-3.644-1.94-3.644 1.94.696-4.109-2.948-2.91 4.074-.6 1.822-3.739z"/><path class="a63142fc-4bd7-4268-9258-3f7149e46b91" d="M36.8 69.12l-4.3-2.288-4.3 2.288.82-4.845-3.476-3.431 4.8-.707 2.156-4.408 2.149 4.408 4.8.707-3.476 3.431zm-4.3-3.411l2.991 1.591-.571-3.373 2.42-2.389-3.34-.491-1.5-3.069-1.5 3.069-3.344.492 2.42 2.389-.567 3.372z"/><path class="06892f7d-8196-473d-85c6-11d2ce7cc3de" d="M45.274 56.853l1.822 3.739 4.074.6-2.948 2.91.696 4.109-3.644-1.94-3.643 1.94.696-4.109-2.948-2.91 4.074-.6 1.821-3.739z"/><path class="a63142fc-4bd7-4268-9258-3f7149e46b91" d="M49.571 69.12l-4.3-2.288-4.3 2.288.82-4.845-3.476-3.431 4.8-.707 2.149-4.408 2.149 4.408 4.8.707-3.463 3.432zm-4.3-3.411l2.995 1.591-.571-3.373 2.42-2.389-3.344-.492-1.5-3.069-1.5 3.069-3.344.492 2.42 2.389-.564 3.373z"/><path class="06892f7d-8196-473d-85c6-11d2ce7cc3de" d="M58.049 56.853l1.822 3.739 4.073.6-2.947 2.91.695 4.109-3.643-1.94-3.644 1.94.696-4.109-2.948-2.91 4.074-.6 1.822-3.739z"/><path class="a63142fc-4bd7-4268-9258-3f7149e46b91" d="M62.345 69.12l-4.3-2.288-4.3 2.288.82-4.845-3.465-3.43 4.8-.707 2.149-4.408 2.151 4.407 4.8.707-3.476 3.431zm-4.3-3.411L61.04 67.3l-.571-3.373 2.42-2.389-3.344-.492-1.5-3.069-1.5 3.069-3.344.492 2.42 2.389-.563 3.373zM6.952 1.125l1.822 3.738 4.074.6L9.9 8.373l.696 4.109-3.644-1.94-3.644 1.94.696-4.109-2.948-2.91 4.074-.6 1.822-3.738z"/><path class="a63142fc-4bd7-4268-9258-3f7149e46b91" d="M11.248 13.392L6.952 11.1l-4.3 2.288.82-4.845L0 5.115l4.8-.707L6.952 0 9.1 4.408l4.8.707-3.472 3.432zM6.952 9.98l2.991 1.593L9.372 8.2l2.42-2.389-3.345-.493-1.5-3.069-1.5 3.069-3.335.492 2.42 2.39-.571 3.374zm12.774-8.855l1.822 3.738 4.074.6-2.948 2.91.696 4.109-3.644-1.94-3.644 1.94.696-4.109-2.948-2.91 4.074-.6 1.822-3.738z"/><path class="a63142fc-4bd7-4268-9258-3f7149e46b91" d="M24.022 13.392l-4.3-2.288-4.3 2.288.82-4.845-3.467-3.432 4.8-.707L19.726 0l2.148 4.408 4.8.707L23.2 8.547zm-4.3-3.412l2.991 1.593-.567-3.373 2.42-2.389-3.345-.492-1.5-3.069-1.5 3.069-3.345.492 2.43 2.389-.571 3.374zM32.5 1.125l1.822 3.738 4.074.6-2.948 2.91.696 4.109-3.644-1.94-3.644 1.94.696-4.109-2.948-2.91 4.074-.6L32.5 1.125z"/><path class="a63142fc-4bd7-4268-9258-3f7149e46b91" d="M36.8 13.392L32.5 11.1l-4.3 2.288.82-4.845-3.471-3.428 4.8-.707L32.5 0l2.149 4.408 4.8.707-3.473 3.432zM32.5 9.98l2.991 1.593L34.92 8.2l2.42-2.39L34 5.318l-1.5-3.069L31 5.318l-3.34.492 2.42 2.39-.571 3.374zm12.774-8.855l1.822 3.738 4.074.6-2.948 2.91.696 4.109-3.644-1.94-3.643 1.94.696-4.109-2.948-2.91 4.074-.6 1.821-3.738z"/><path class="a63142fc-4bd7-4268-9258-3f7149e46b91" d="M49.571 13.392l-4.3-2.288-4.3 2.288.82-4.845-3.468-3.432 4.8-.707L45.274 0l2.149 4.408 4.8.707-3.473 3.432zm-4.3-3.412l2.991 1.593-.567-3.373 2.42-2.389-3.345-.493-1.5-3.07-1.5 3.07-3.344.492 2.428 2.39-.571 3.374zm12.778-8.855l1.822 3.738 4.073.6-2.947 2.91.695 4.109-3.643-1.94-3.644 1.94.696-4.109-2.948-2.91 4.074-.6 1.822-3.738z"/><path class="a63142fc-4bd7-4268-9258-3f7149e46b91" d="M62.345 13.392l-4.3-2.288-4.3 2.288.82-4.845L51.1 5.115l4.8-.707L58.049 0 60.2 4.408l4.8.707-3.476 3.432zm-4.3-3.412l2.991 1.593-.567-3.373 2.42-2.389-3.344-.492-1.5-3.07-1.5 3.07-3.344.492L55.629 8.2l-.571 3.374z"/></g></svg>